<svg width="16" height="20" viewBox="0 0 16 20" fill="none" xmlns="http://www.w3.org/2000/svg">
<path d="M15.1872 1.47368H10.9091V1.43158C10.9091 0.631579 10.2674 0 9.45455 0H6.54545C5.73262 0 5.09091 0.631579 5.09091 1.43158V1.47368H0.812834C0.363636 1.47368 0 1.83158 0 2.27368V3.07368C0 3.51579 0.363636 3.87368 0.812834 3.87368H15.1872C15.6364 3.87368 16 3.51579 16 3.07368V2.27368C16 1.83158 15.6364 1.47368 15.1872 1.47368Z" fill="#2D5199"/>
<path d="M14.1177 4.96851H1.88244C1.64714 4.96851 1.47602 5.15798 1.49741 5.38956L2.09634 17.579C2.16051 18.9264 3.2942 20.0001 4.66319 20.0001H11.3156C12.6846 20.0001 13.8183 18.9475 13.8824 17.579L14.4814 5.38956C14.5241 5.17903 14.3316 4.96851 14.1177 4.96851ZM6.67388 16.7369C6.67388 17.1159 6.37442 17.4106 5.98939 17.4106C5.60436 17.4106 5.3049 17.1159 5.3049 16.7369V8.25272C5.3049 7.87377 5.60436 7.57903 5.98939 7.57903C6.37442 7.57903 6.67388 7.87377 6.67388 8.25272V16.7369ZM10.6953 16.7369C10.6953 17.1159 10.3958 17.4106 10.0108 17.4106C9.62575 17.4106 9.32629 17.1159 9.32629 16.7369V8.25272C9.32629 7.87377 9.62575 7.57903 10.0108 7.57903C10.3958 7.57903 10.6953 7.87377 10.6953 8.25272V16.7369Z" fill="#2D5199"/>
</svg>
