<svg xmlns="http://www.w3.org/2000/svg" width="34" height="34" fill="none" viewBox="0 0 34 34"><path fill="#32B482" d="M32.725 18.3281V13.9187C33.575 13.4937 34 12.8031 34 11.7937C34 10.9437 33.4156 10.0937 32.5656 9.6687L18.0094 3.02808C17.425 2.76245 16.7344 2.76245 16.15 3.02808L1.43438 9.50933C0.584375 9.93433 0 10.625 0 11.6343C0 12.4843 0.584375 13.3343 1.43438 13.7593L5.84375 15.725V23.2156C5.84375 27.625 9.40312 31.1312 13.7594 31.1312H19.125C23.5344 31.1312 27.0406 27.5718 27.0406 23.2156V16.4687L29.8563 15.1937V18.4343L28.8469 19.4437C28.6875 19.6031 28.6875 19.7093 28.8469 19.8687L31.1312 22.1531C31.2906 22.3125 31.3969 22.3125 31.5563 22.1531L33.8406 19.8687C34 19.7093 34 19.6031 33.8406 19.4437L32.725 18.3281ZM17.1594 5.68433L30.4938 11.6343L17.1594 17.7437L3.66563 11.6343L17.1594 5.68433ZM24.4375 23.2687C24.4375 26.0843 21.9406 28.3687 19.125 28.3687H13.7594C10.9437 28.3687 8.65937 26.0843 8.65937 23.2687V17.0531L16.3094 20.4531C16.575 20.6124 16.8937 20.6124 17.3187 20.6124C17.5844 20.6124 17.9031 20.6124 18.3281 20.4531L24.4375 17.7437V23.2687Z"/></svg>