<svg xmlns="http://www.w3.org/2000/svg" width="18" height="19" fill="none" viewBox="0 0 18 19"><g clip-path="url(#clip0)"><path fill="#F1AC00" d="M6.82812 15.3958H11.1728V15.7233H6.82812V15.3958Z"/><path fill="#F1AC00" d="M11.0625 17.3613H6.91895C6.95061 17.4736 6.99047 17.5832 7.03835 17.6889H10.9402C10.9884 17.583 11.0292 17.4735 11.0625 17.3613Z"/><path fill="#F1AC00" d="M9.14485 18.9942C9.65474 18.9572 10.1346 18.7263 10.4954 18.344H7.48242C7.49363 18.3555 7.50318 18.368 7.51349 18.379C7.95156 18.8163 8.54343 19.0396 9.14485 18.9942Z"/><path fill="#F1AC00" d="M11.1728 16.3787H6.82812V16.7062H11.1687C11.1699 16.6765 11.1728 16.3787 11.1728 16.3787Z"/><path fill="#F1AC00" d="M11.1729 14.4911C11.1758 13.772 11.4961 13.0954 12.0394 12.6613C13.6347 11.3591 14.3253 9.1673 13.7867 7.11582C13.248 5.06418 11.5872 3.56036 9.58431 3.31052C9.38853 3.28717 9.1917 3.27533 8.99471 3.27517C7.77642 3.27101 6.60025 3.7451 5.69487 4.60545C4.59477 5.64143 3.98775 7.13997 4.03805 8.69514C4.08836 10.2505 4.79085 11.7018 5.95535 12.6562C6.501 13.0916 6.82361 13.7703 6.8283 14.4923V14.7405H11.1729V14.4911ZM9.47945 4.61457C9.46763 4.61457 9.45581 4.61393 9.44399 4.61265C9.29686 4.59474 9.14881 4.58578 9.00062 4.58578C8.82924 4.58578 8.69029 4.43911 8.69029 4.25821C8.69029 4.07731 8.82924 3.93064 9.00062 3.93064C9.17215 3.93128 9.34368 3.94231 9.51415 3.96343C9.67689 3.98374 9.7966 4.13425 9.78736 4.30699C9.77826 4.47973 9.64325 4.61521 9.47945 4.61617V4.61457ZM10.2571 4.4535C10.3229 4.28636 10.5044 4.20718 10.6627 4.2766C12.107 4.90551 13.119 6.30569 13.3124 7.94211C13.3327 8.12173 13.2113 8.28487 13.0411 8.30631C12.8708 8.3279 12.7164 8.19962 12.696 8.02C12.53 6.61807 11.6624 5.41862 10.4247 4.88056C10.2676 4.81115 10.1928 4.62113 10.2571 4.45478V4.4535Z"/><path fill="#F1AC00" d="M9.00076 1.96543C9.17214 1.96543 9.31109 1.81876 9.31109 1.63786V0.327571C9.31109 0.146671 9.17214 0 9.00076 0C8.82938 0 8.69043 0.146671 8.69043 0.327571V1.63786C8.69043 1.81876 8.82938 1.96543 9.00076 1.96543Z"/><path fill="#F1AC00" d="M5.31845 2.76679C5.37345 2.869 5.47619 2.93233 5.58756 2.93249C5.69893 2.93281 5.80182 2.87012 5.85728 2.76807C5.91274 2.66618 5.91228 2.54062 5.85591 2.43922L5.23526 1.30455C5.14904 1.14925 4.96008 1.09646 4.81234 1.18651C4.66475 1.27656 4.61354 1.4757 4.69779 1.63213L5.31845 2.76679Z"/><path fill="#F1AC00" d="M3.24283 4.95723L2.16788 4.30209C2.01954 4.21315 1.83103 4.26722 1.74572 4.42317C1.66041 4.57911 1.71042 4.77841 1.85755 4.86958L2.9325 5.52472C3.08084 5.61365 3.26935 5.55959 3.35466 5.40364C3.43997 5.24769 3.38996 5.0484 3.24283 4.95723Z"/><path fill="#F1AC00" d="M2.48308 8.84442C2.48308 8.66352 2.34412 8.51685 2.17275 8.51685H0.931424C0.760045 8.51685 0.621094 8.66352 0.621094 8.84442C0.621094 9.02532 0.760045 9.17199 0.931424 9.17199H2.17275C2.34412 9.17199 2.48308 9.02532 2.48308 8.84442Z"/><path fill="#F1AC00" d="M2.93213 12.1638L1.85718 12.819C1.76035 12.8772 1.7005 12.9855 1.7002 13.103C1.69989 13.2206 1.75944 13.3294 1.85597 13.3879C1.95249 13.4464 2.07144 13.4458 2.16751 13.3865L3.24246 12.7313C3.33929 12.6731 3.39914 12.5648 3.39944 12.4473C3.39975 12.3297 3.34019 12.2209 3.24367 12.1624C3.14715 12.1038 3.0282 12.1045 2.93213 12.1638Z"/><path fill="#F1AC00" d="M16.1438 12.819L15.0689 12.1638C14.9728 12.1045 14.854 12.1038 14.7573 12.1624C14.6608 12.2209 14.6014 12.3297 14.6016 12.4473C14.6019 12.5648 14.6617 12.6731 14.7585 12.7313L15.8335 13.3865C15.9818 13.4754 16.1703 13.4213 16.2556 13.2654C16.3409 13.1094 16.2911 12.9101 16.1438 12.819Z"/><path fill="#F1AC00" d="M17.0692 8.51685H15.8279C15.6565 8.51685 15.5176 8.66352 15.5176 8.84442C15.5176 9.02532 15.6565 9.17199 15.8279 9.17199H17.0692C17.2406 9.17199 17.3796 9.02532 17.3796 8.84442C17.3796 8.66352 17.2406 8.51685 17.0692 8.51685Z"/><path fill="#F1AC00" d="M14.9129 5.56855C14.9674 5.56855 15.0209 5.55335 15.068 5.52472L16.1431 4.86958C16.2903 4.77841 16.3401 4.57911 16.2548 4.42317C16.1695 4.26722 15.981 4.21316 15.8328 4.30209L14.7577 4.95723C14.6362 5.03144 14.5768 5.18259 14.6131 5.32575C14.6495 5.4689 14.7724 5.56855 14.9129 5.56855Z"/><path fill="#F1AC00" d="M12.2588 2.88675C12.4071 2.97728 12.597 2.92354 12.6826 2.76679L13.3032 1.63213C13.3876 1.4757 13.3364 1.27656 13.1887 1.18651C13.0409 1.09646 12.852 1.14925 12.7658 1.30455L12.1451 2.43922C12.0595 2.59597 12.1103 2.79622 12.2588 2.88675Z"/></g><defs><clipPath id="clip0"><rect width="18" height="19" fill="#fff"/></clipPath></defs></svg>