<svg width="30" height="30" viewBox="0 0 30 30" fill="none" xmlns="http://www.w3.org/2000/svg">
<path d="M29.4365 11.2385C28.92 9.17815 27.9339 7.63285 25.8678 7.63285H23.1912V10.8171C23.1912 13.299 21.0781 15.3594 18.7302 15.3594H11.5458C9.57357 15.3594 7.97702 17.0451 7.97702 19.0119V25.8018C7.97702 27.7218 9.66749 28.8924 11.5458 29.4544C13.7997 30.1099 16.0067 30.2504 18.7302 29.4544C20.5146 28.9393 22.299 27.8622 22.299 25.8018V23.0859H15.1145V22.1961H25.8678C27.9339 22.1961 28.7322 20.7445 29.4365 18.5904C30.1878 16.2491 30.1878 14.095 29.4365 11.2385ZM19.1529 24.8185C19.9042 24.8185 20.5146 25.4272 20.5146 26.1765C20.5146 26.9257 19.9042 27.5344 19.1529 27.5344C18.4015 27.5813 17.7911 26.9257 17.7911 26.1765C17.7911 25.4272 18.4015 24.8185 19.1529 24.8185ZM11.2171 14.4228H18.4015C20.3738 14.4228 21.9703 12.7838 21.9703 10.7703V3.98032C21.9703 2.0604 20.3268 0.608755 18.4015 0.280964C16.0067 -0.0936546 13.3771 -0.0936546 11.2171 0.280964C8.16485 0.796064 7.64832 1.91992 7.64832 3.98032V6.6963H14.8328V7.58602H4.97176C2.90563 7.58602 1.0743 8.85036 0.510812 11.1917C-0.14659 13.9077 -0.193547 15.5935 0.510812 18.45C1.02734 20.5572 2.24823 22.0557 4.31435 22.0557H6.75613V18.7777C6.70918 16.4832 8.7753 14.4228 11.2171 14.4228ZM10.7475 4.87004C9.99619 4.87004 9.38574 4.26128 9.38574 3.51205C9.38574 2.76281 9.99619 2.15406 10.7475 2.15406C11.4988 2.15406 12.1093 2.76281 12.1093 3.51205C12.1093 4.26128 11.4988 4.87004 10.7475 4.87004Z" fill="#115EF8"/>
</svg>
