<svg width="40" height="40" viewBox="0 0 40 40" fill="none" xmlns="http://www.w3.org/2000/svg">
<path d="M35.0625 0H5C2.25 0 0 2.25 0 5C0 5 0 4.625 0 35C0 37.75 2.25 40 5 40H35C37.75 40 40 37.75 40 35V5C40 2.25 37.8125 0 35.0625 0ZM17.625 30.3125C17.625 31.625 16.5625 32.6875 15.25 32.6875H7.8125C6.5 32.6875 5.4375 31.625 5.375 30.3125V7.625C5.375 6.3125 6.4375 5.25 7.75 5.25H15.125C16.4375 5.25 17.5 6.3125 17.5 7.625L17.625 30.3125ZM34.8125 20.3125C34.8125 21.625 33.75 22.6875 32.4375 22.6875H25.1875C23.875 22.6875 22.8125 21.625 22.8125 20.3125V7.625C22.8125 6.3125 23.875 5.25 25.1875 5.25H32.4375C33.75 5.25 34.8125 6.3125 34.8125 7.625V20.3125Z" fill="#155FCD"/>
</svg>
