<svg width="24" height="24" viewBox="0 0 24 24" fill="none" xmlns="http://www.w3.org/2000/svg">
<path d="M23.1 12.9375V9.82495C23.7 9.52495 24 9.03745 24 8.32495C24 7.72495 23.5875 7.12495 22.9875 6.82495L12.7125 2.13745C12.3 1.94995 11.8125 1.94995 11.4 2.13745L1.0125 6.71245C0.4125 7.01245 0 7.49995 0 8.21245C0 8.81245 0.4125 9.41245 1.0125 9.71245L4.125 11.1V16.3875C4.125 19.5 6.6375 21.9749 9.7125 21.9749H13.5C16.6125 21.9749 19.0875 19.4625 19.0875 16.3875V11.625L21.075 10.725V13.0125L20.3625 13.7249C20.25 13.8375 20.25 13.9124 20.3625 14.025L21.975 15.6375C22.0875 15.75 22.1625 15.75 22.275 15.6375L23.8875 14.025C24 13.9124 24 13.8375 23.8875 13.7249L23.1 12.9375ZM12.1125 4.01245L21.525 8.21245L12.1125 12.525L2.5875 8.21245L12.1125 4.01245ZM17.25 16.4249C17.25 18.4124 15.4875 20.025 13.5 20.025H9.7125C7.725 20.025 6.1125 18.4124 6.1125 16.4249V12.0374L11.5125 14.4374C11.7 14.5499 11.925 14.5499 12.225 14.5499C12.4125 14.5499 12.6375 14.5499 12.9375 14.4374L17.25 12.525V16.4249Z" fill="white"/>
</svg>
