<svg width="24" height="24" viewBox="0 0 24 24" fill="none" xmlns="http://www.w3.org/2000/svg">
<path d="M23.2969 2.8125H19.7812V0.703125C19.7812 0.314812 19.4664 0 19.0781 0H0.703125C0.314812 0 0 0.314812 0 0.703125V21.1875C0 22.7383 1.26169 24 2.8125 24H19.0781H21.1875C22.7383 24 24 22.7383 24 21.1875V3.51562C24 3.12731 23.6852 2.8125 23.2969 2.8125ZM2.8125 22.5938C2.03709 22.5938 1.40625 21.9629 1.40625 21.1875V1.40625H18.375V21.1875C18.375 21.6996 18.5132 22.1797 18.7534 22.5938H2.8125ZM22.5938 21.1875C22.5938 21.9629 21.9629 22.5938 21.1875 22.5938C20.4121 22.5938 19.7812 21.9629 19.7812 21.1875C19.7812 20.8502 19.7812 4.54772 19.7812 4.21875H22.5938V21.1875Z" fill="white"/>
<path d="M16.2656 2.8125H3.51562C3.12731 2.8125 2.8125 3.12731 2.8125 3.51562V6.32812C2.8125 6.71644 3.12731 7.03125 3.51562 7.03125H16.2656C16.6539 7.03125 16.9688 6.71644 16.9688 6.32812V3.51562C16.9688 3.12731 16.6539 2.8125 16.2656 2.8125ZM15.5625 5.625H4.21875V4.21875H15.5625V5.625Z" fill="white"/>
<path d="M16.2656 8.4375H10.6406C10.2523 8.4375 9.9375 8.75231 9.9375 9.14062V14.7656C9.9375 15.1539 10.2523 15.4688 10.6406 15.4688H16.2656C16.6539 15.4688 16.9688 15.1539 16.9688 14.7656V9.14062C16.9688 8.75231 16.6539 8.4375 16.2656 8.4375ZM15.5625 14.0625H11.3438V9.84375H15.5625V14.0625Z" fill="white"/>
<path d="M16.2656 19.7812H3.51562C3.12731 19.7812 2.8125 20.0961 2.8125 20.4844C2.8125 20.8727 3.12731 21.1875 3.51562 21.1875H16.2656C16.6539 21.1875 16.9688 20.8727 16.9688 20.4844C16.9688 20.0961 16.6539 19.7812 16.2656 19.7812Z" fill="white"/>
<path d="M16.2656 16.9688H3.51562C3.12731 16.9688 2.8125 17.2836 2.8125 17.6719C2.8125 18.0602 3.12731 18.375 3.51562 18.375H16.2656C16.6539 18.375 16.9688 18.0602 16.9688 17.6719C16.9688 17.2836 16.6539 16.9688 16.2656 16.9688Z" fill="white"/>
<path d="M7.73438 11.25H3.51562C3.12731 11.25 2.8125 11.5648 2.8125 11.9531C2.8125 12.3414 3.12731 12.6562 3.51562 12.6562H7.73438C8.12269 12.6562 8.4375 12.3414 8.4375 11.9531C8.4375 11.5648 8.12269 11.25 7.73438 11.25Z" fill="white"/>
<path d="M7.73438 14.0625H3.51562C3.12731 14.0625 2.8125 14.3773 2.8125 14.7656C2.8125 15.1539 3.12731 15.4688 3.51562 15.4688H7.73438C8.12269 15.4688 8.4375 15.1539 8.4375 14.7656C8.4375 14.3773 8.12269 14.0625 7.73438 14.0625Z" fill="white"/>
<path d="M7.73438 8.4375H3.51562C3.12731 8.4375 2.8125 8.75231 2.8125 9.14062C2.8125 9.52894 3.12731 9.84375 3.51562 9.84375H7.73438C8.12269 9.84375 8.4375 9.52894 8.4375 9.14062C8.4375 8.75231 8.12269 8.4375 7.73438 8.4375Z" fill="white"/>
</svg>
