<svg xmlns="http://www.w3.org/2000/svg" width="24" height="26" fill="none" viewBox="0 0 24 26"><g clip-path="url(#clip0)"><path fill="#fff" d="M12.0376 14.7524C8.7376 14.7524 6.0376 11.9048 6.0376 8.42432C6.0376 4.94385 8.7376 2.09619 12.0376 2.09619C15.3376 2.09619 18.0376 4.94385 18.0376 8.42432C18.0376 11.9048 15.3376 14.7524 12.0376 14.7524ZM12.0376 4.23193C9.8251 4.23193 8.0251 6.13037 8.0251 8.46387C8.0251 10.7974 9.8626 12.6563 12.0376 12.6563C14.2126 12.6563 16.0501 10.7578 16.0501 8.42432C16.0501 6.09082 14.2501 4.23193 12.0376 4.23193Z"/><path fill="#fff" d="M1.05003 23.2163C0.750032 23.2163 0.450032 23.0977 0.262532 22.7812C-0.149968 22.3462 -0.0374684 21.6343 0.375032 21.3179C3.67503 18.4702 7.76253 16.8882 12.075 16.8882C16.3875 16.8882 20.475 18.4702 23.6625 21.3179C24.075 21.7529 24.15 22.3857 23.775 22.7812C23.3625 23.2163 22.7625 23.2954 22.3875 22.8999C19.5375 20.3687 15.8625 18.9844 12.0375 18.9844C8.21253 18.9844 4.53753 20.3687 1.65003 22.979C1.53753 23.0977 1.23753 23.2163 1.05003 23.2163Z"/></g><defs><clipPath id="clip0"><rect width="24" height="25.313" fill="#fff"/></clipPath></defs></svg>