<svg width="24" height="24" viewBox="0 0 24 24" fill="none" xmlns="http://www.w3.org/2000/svg">
<g clip-path="url(#clip0)">
<path d="M7.9875 13.9875C10.8 13.9875 12.975 11.775 12.975 8.99995C12.975 6.22495 10.7625 4.01245 7.9875 4.01245C5.2125 4.01245 3 6.18745 3 8.99995C3 11.8125 5.2125 13.9875 7.9875 13.9875ZM7.9875 5.99995C9.675 5.99995 10.9875 7.31245 10.9875 8.99995C10.9875 10.6875 9.675 12 7.9875 12C6.3 12 4.9875 10.6875 4.9875 8.99995C4.9875 7.31245 6.3 5.99995 7.9875 5.99995Z" fill="white"/>
<path d="M7.98741 15C5.09991 15 2.39991 16.2 0.299915 18.3C-0.112585 18.7125 -0.112585 19.3125 0.299915 19.6875C0.712415 20.0625 1.31241 20.1 1.68741 19.6875C3.37491 18 5.69991 16.9875 7.98741 16.9875C10.2749 16.9875 12.4874 18 14.2874 19.6875C14.4749 19.875 14.7749 19.9875 14.9999 19.9875C15.2999 19.9875 15.4874 19.875 15.7124 19.6875C16.1249 19.275 16.1249 18.675 15.7124 18.3C13.5749 16.2 10.7999 15 7.98741 15Z" fill="white"/>
<path d="M18 13.9875C19.6875 13.9875 21 12.675 21 10.9875C21 9.30005 19.6875 7.98755 18 7.98755C16.3125 7.98755 15 9.30005 15 10.9875C15 12.675 16.275 13.9875 18 13.9875ZM18 10.0125C18.6 10.0125 19.0125 10.425 19.0125 11.025C19.0125 11.625 18.6 12.0375 18 12.0375C17.4 12.0375 16.9875 11.625 16.9875 11.025C16.9875 10.3875 17.4 10.0125 18 10.0125Z" fill="white"/>
<path d="M23.6999 17.2874C21.5999 15.2999 18.7124 14.5874 15.7874 15.2999C15.2999 15.4124 14.8874 16.0124 15.0749 16.4999C15.1874 16.9874 15.7874 17.3999 16.2749 17.2124C18.4874 16.6124 20.7749 17.2124 22.3874 18.7124C22.5749 18.8999 22.7999 19.0124 23.0999 19.0124C23.3999 19.0124 23.5874 18.8999 23.8124 18.7124C24.0749 18.2999 24.0749 17.5874 23.6999 17.2874Z" fill="white"/>
</g>
<defs>
<clipPath id="clip0">
<rect width="24" height="24" fill="white"/>
</clipPath>
</defs>
</svg>
