<svg width="40" height="40" viewBox="0 0 40 40" fill="none" xmlns="http://www.w3.org/2000/svg">
<path d="M32.5 40H7.5C3.3575 40 0 36.6425 0 32.5V7.5C0 3.3575 3.3575 0 7.5 0H32.5C36.6425 0 40 3.3575 40 7.5V32.5C40 36.6425 36.6425 40 32.5 40Z" fill="#4F4F4F" fill-opacity="0.08"/>
<path d="M22.7087 10H12.2913C11.025 10 10 11.025 10 12.2912V26.0412C10 27.3075 11.025 28.3325 12.2913 28.3325H20.9575C20.8738 27.9325 20.8325 27.5075 20.8325 27.0825V22.7075C20.8325 22.6412 20.8325 22.5662 20.8413 22.4987H13.3325C12.875 22.5 12.5 22.125 12.5 21.6662C12.5 21.2075 12.875 20.8325 13.3337 20.8325H21.1838C21.8088 19.1987 23.25 17.9575 25 17.6075V12.2912C25 11.025 23.975 10 22.7087 10ZM13.3337 14.1662H17.5C17.9588 14.1662 18.3337 14.5412 18.3337 15C18.3337 15.4587 17.9588 15.8337 17.5 15.8337H13.3337C12.875 15.8337 12.5 15.4587 12.5 15C12.5 14.5412 12.875 14.1662 13.3337 14.1662ZM21.6663 19.1662H13.3325C12.8738 19.1662 12.4987 18.7912 12.4987 18.3325C12.5 17.875 12.875 17.5 13.3337 17.5H21.6675C22.125 17.5 22.5 17.875 22.5 18.3337C22.5 18.7912 22.125 19.1662 21.6663 19.1662Z" fill="#4F4F4F"/>
<path d="M27.0842 29.9997C25.4767 29.9997 24.168 28.691 24.168 27.0835V22.7085C24.168 21.6747 25.0092 20.8335 26.043 20.8335C27.0767 20.8335 27.918 21.6747 27.918 22.7085V26.8747C27.918 27.2197 27.638 27.4997 27.293 27.4997C26.948 27.4997 26.668 27.2197 26.668 26.8747V22.7085C26.668 22.3635 26.3867 22.0835 26.043 22.0835C25.6992 22.0835 25.418 22.3635 25.418 22.7085V27.0835C25.418 28.0022 26.1655 28.7497 27.0842 28.7497C28.003 28.7497 28.7505 28.0022 28.7505 27.0835V21.4585C28.7505 21.1135 29.0305 20.8335 29.3755 20.8335C29.7205 20.8335 30.0005 21.1135 30.0005 21.4585V27.0835C30.0005 28.691 28.6917 29.9997 27.0842 29.9997Z" fill="#4F4F4F"/>
</svg>
