<svg width="24" height="24" viewBox="0 0 24 24" fill="none" xmlns="http://www.w3.org/2000/svg">
<path d="M21.3 16.0125L19.0875 14.7L21.1875 13.5C21.675 13.3125 21.9 12.7875 21.975 12.3C21.975 11.8125 21.675 11.2875 21.2625 11.1L18.75 9.6L21.2625 8.2125C21.75 8.025 21.975 7.5 22.05 7.0125C22.05 6.525 21.75 6 21.3375 5.8125L12 0.225C11.5875 -0.075 10.9875 -0.075 10.6125 0.225L0.7125 5.7375C0.3 6.0375 0 6.45 0 6.9375C0 7.425 0.3 7.95 0.7125 8.1375L3.3 9.525L0.7125 11.025C0.3 11.2125 0 11.7375 0 12.225C0 12.7125 0.3 13.2375 0.7125 13.425L3 14.7375L0.7125 16.05C0.3 16.2375 0 16.7625 0 17.25C0 17.7375 0.3 18.2625 0.7125 18.45L10.5 23.7375C10.6875 23.85 10.9875 23.925 11.2125 23.925C11.4 23.925 11.7 23.8125 11.925 23.7375L21.225 18.45C21.7125 18.2625 21.9375 17.7375 22.0125 17.25C22.0125 16.725 21.7125 16.2375 21.3 16.0125ZM2.7 6.9375L11.325 2.025L19.425 6.9375L11.2125 11.5125L2.7 6.9375ZM2.7 12.225L5.4 10.725L10.5 13.5375C10.6875 13.725 10.9875 13.725 11.2125 13.725C11.2125 13.725 11.2125 13.725 11.325 13.725C11.625 13.725 11.8125 13.6125 12.0375 13.425L16.8375 10.725L19.425 12.225L11.325 16.8375L2.7 12.225ZM11.2125 21.825L2.7 17.2125L5.1 15.825L10.5 18.825C10.6875 18.9375 10.9875 19.0125 11.2125 19.0125C11.4 19.0125 11.7 18.9 11.925 18.825L17.1375 15.825L19.425 17.2125L11.2125 21.825Z" fill="white"/>
</svg>
