<svg xmlns="http://www.w3.org/2000/svg" width="18" height="18" fill="none" viewBox="0 0 18 18"><path fill="#4B4D4B" d="M17.487 14.1399L13.422 10.4439C13.023 10.0809 12.407 10.0999 12.031 10.4869L9.63804 12.9479C9.06204 12.8379 7.90404 12.4769 6.71204 11.2879C5.52004 10.0949 5.15904 8.93388 5.05204 8.36188L7.51104 5.96788C7.89904 5.59188 7.91704 4.97688 7.55404 4.57688L3.85904 0.512877C3.49604 0.111877 2.87904 0.0738771 2.46804 0.425877L0.298038 2.28688C0.125038 2.46088 0.0220378 2.69088 0.00803782 2.93588C-0.00696218 3.18588 -0.292962 9.10788 4.29904 13.7019C8.30504 17.7069 13.323 17.9999 14.705 17.9999C14.907 17.9999 15.031 17.9939 15.064 17.9919C15.309 17.9779 15.539 17.8749 15.712 17.7009L17.572 15.5299C17.926 15.1189 17.887 14.5029 17.487 14.1399Z"/></svg>